<svg xmlns="http://www.w3.org/2000/svg" version="1.0" width="1535" height="1535" preserveAspectRatio="xMidYMid meet" style=""><rect id="backgroundrect" width="100%" height="100%" x="0" y="0" fill="none" stroke="none"/>


<g class="currentLayer" style=""><title>Layer 1</title><g transform="translate(0,1535) scale(0.10000000149011612,-0.10000000149011612) " fill="#FF4E00" stroke="#ff4e00" id="svg_1" class="" stroke-width="350" stroke-opacity="1">
<path d="M4292.230772018433,12525.000000000002 c-164,-45 -311,-180 -369,-340 c-42,-114 -46,-194 -35,-680 c6,-247 9,-450 8,-451 c-1,-1 -83,3 -182,8 c-246,13 -582,5 -660,-16 c-320,-87 -435,-334 -295,-635 c113,-242 389,-490 657,-593 l83,-31 l-4,-1706 c-3,-938 -7,-1724 -11,-1746 c-8,-48 11,-520 26,-655 c55,-502 251,-863 592,-1091 c155,-103 311,-169 507,-212 c227,-51 218,-50 1711,-56 l1407,-6 l94,-140 c346,-517 607,-810 917,-1029 c374,-264 888,-366 1685,-336 c318,12 551,33 605,56 c45,19 97,68 122,116 c21,42 25,114 7,153 c-6,14 -73,79 -147,144 c-370,321 -614,615 -765,918 c-31,62 -56,114 -56,117 c0,3 229,6 509,6 c614,0 741,10 941,76 c202,67 370,173 535,339 c216,215 329,429 387,730 c22,110 22,113 27,2540 c3,1337 3,2538 -1,2670 c-21,718 -136,1085 -437,1386 c-201,200 -440,322 -751,382 c-102,20 -145,21 -1440,24 c-734,2 -1349,1 -1367,-2 c-147,-27 -181,-276 -50,-363 l41,-27 l1255,0 c981,0 1278,-3 1355,-13 c485,-64 792,-291 900,-665 c61,-209 75,-374 86,-977 c13,-698 12,-4683 0,-4795 c-28,-246 -125,-443 -305,-620 c-140,-138 -279,-212 -485,-257 c-105,-22 -107,-22 -800,-19 c-494,2 -707,0 -737,-8 c-53,-14 -98,-52 -125,-104 c-31,-61 -21,-150 32,-309 c116,-348 326,-680 642,-1014 l80,-84 l-229,0 c-427,0 -756,40 -994,121 c-278,94 -569,339 -851,716 c-160,215 -299,421 -352,523 c-21,41 -50,88 -65,103 c-57,61 11,59 -1579,55 c-1497,-3 -1533,-2 -1724,37 c-145,30 -348,140 -470,254 c-158,148 -242,320 -296,606 c-15,82 -17,276 -22,2240 l-5,2150 l-25,43 c-30,53 -67,76 -145,92 c-156,32 -314,113 -432,223 c-63,59 -183,225 -183,253 c0,41 100,45 652,27 c250,-8 368,-9 395,-1 c23,6 54,27 79,53 c68,70 69,78 54,614 c-15,548 -12,669 20,735 c56,117 171,113 230,-9 c21,-43 22,-59 24,-372 c2,-278 5,-337 20,-387 c68,-229 222,-356 432,-356 c189,0 340,105 399,277 c37,106 45,202 45,513 c0,179 4,299 11,317 c16,42 69,92 105,99 c58,11 121,-38 150,-116 c13,-37 16,-74 13,-200 c-2,-85 -4,-288 -4,-450 c0,-379 -8,-359 190,-465 c460,-246 1377,-753 1705,-943 c480,-276 534,-327 535,-497 c0,-68 -4,-89 -28,-137 c-49,-100 -153,-170 -279,-188 c-110,-16 -574,-22 -912,-12 c-218,6 -341,6 -365,0 c-48,-14 -116,-83 -130,-133 c-8,-28 -11,-327 -11,-1000 c0,-910 1,-962 19,-1000 c32,-71 93,-105 186,-105 c85,0 159,45 184,113 c7,18 11,176 11,450 c0,232 3,613 7,847 l6,425 l481,0 c604,1 681,11 871,108 c93,48 210,159 263,249 c73,123 108,281 99,434 c-15,230 -132,425 -332,555 c-251,163 -919,541 -1860,1053 l-230,125 l-6,413 c-4,362 -7,420 -23,468 c-66,199 -216,346 -403,395 c-231,60 -479,-58 -582,-276 c-64,-135 -73,-198 -80,-573 c-5,-297 -8,-330 -23,-340 c-14,-8 -22,-7 -35,7 c-22,21 -35,216 -26,392 c7,150 -10,323 -42,423 c-57,180 -202,323 -370,367 c-73,18 -192,18 -262,0 z" id="svg_2" stroke-width="350" stroke="#ff4e00" stroke-opacity="1"/>
</g></g></svg>